<svg xmlns="http://www.w3.org/2000/svg" xmlns:xlink="http://www.w3.org/1999/xlink" viewBox="0 0 500 500"><defs><clipPath id="freepik--clip-path--inject-134"><path d="M374.61,198.93c-4.62.54-16.59,8.7-17.41,9.52s-4.08,2.72-5.44,3.81c0,0-28,17.41-30.47,19s-7.34,4.89-7.07,6-14.42,25-14.42,25-4.35,5.71-.27,10.88,7.89,1.63,9.79.55,16.87-15.24,16.87-15.24L340,291.45s19.12-12.82,39.52-12l-13.6-53.32s18.77-14.15,19.31-19S379.24,198.38,374.61,198.93Z" style="fill:#fff;stroke:#263238;stroke-linecap:round;stroke-linejoin:round"></path></clipPath></defs><g id="freepik--Grade--inject-134"><path d="M162.58,298.69c.79,3.93,10.23,5.51,10.23,5.51l7-4c2.93,24.6,5.53,44.68,6.4,46.43,2.36,4.72,19.67-1.57,21.24-9.44.64-3.18-2.46-24.63-6.37-49.05l24.46-13.88s1.07-3.51-6.54-2.15c-2.66.48-10.42,3.37-19.36,7.11-5.5-33.7-11.86-69.46-11.86-69.46s83.38,90.46,87.32,90.46,9.44-.78,7.08-7.86-94.4-95.18-94.4-95.18-15.73-.79-18.87,6.29c0,0,4.91,45.52,9.55,85.24C169.25,293.2,162.28,297.19,162.58,298.69Z" style="fill:#263238"></path><path d="M348.56,275.5a82.53,82.53,0,0,0-1.21-12.14,83.56,83.56,0,0,0-7.59-23.09,84.3,84.3,0,0,0-6.09-10.41,92.57,92.57,0,0,0-7.3-9.46,97.41,97.41,0,0,0-8.29-8.46A125,125,0,0,0,299.36,198c-26.46-16.07-57-23.44-87.24-23a143.07,143.07,0,0,0-22.53,2.42,107.24,107.24,0,0,0-21.71,6.42,91.12,91.12,0,0,0-19.53,11.21,99.25,99.25,0,0,0-16.2,15.24l0,0a.5.5,0,0,0,0,.68.5.5,0,0,0,.71,0,97.24,97.24,0,0,1,16.75-14,89,89,0,0,1,19.42-9.93c13.73-5,28.44-6.89,43-6.75a164.14,164.14,0,0,1,43.2,6.46,152,152,0,0,1,39.83,17.82c12.23,7.89,23.26,17.87,31.26,30a75.5,75.5,0,0,1,5.36,9.47,74.59,74.59,0,0,1,6.49,20.67,74.2,74.2,0,0,1,.93,10.83,85.56,85.56,0,0,1-.58,10.85c-.27,1.79-.52,3.58-.87,5.36l-.61,2.64-.3,1.32-.39,1.3a72.59,72.59,0,0,1-9.09,19.63c-8,12.1-19.37,21.79-31.95,29a133.72,133.72,0,0,1-40.83,14.94,163,163,0,0,1-43.54,2.5c-1.83-.08-3.64-.33-5.45-.49-.91-.1-1.82-.18-2.72-.29l-2.7-.41c-1.8-.3-3.61-.5-5.39-.88L189.38,360a27,27,0,0,1-2.65-.67l-2.63-.73c-1.76-.49-3.52-.95-5.23-1.58l-5.17-1.77-5.07-2.05c-.84-.35-1.69-.68-2.52-1.05L163.64,351c-1.64-.8-3.31-1.53-4.92-2.38-3.19-1.77-6.44-3.43-9.48-5.45l-2.31-1.45-1.16-.73-1.11-.79L140.21,337c-1.49-1.06-2.86-2.27-4.29-3.4l-2.12-1.72c-.72-.56-1.36-1.22-2-1.82l-4-3.7L124,322.39c-.62-.67-1.27-1.3-1.86-2l-1.75-2.1-1.75-2.1c-.57-.71-1.19-1.38-1.69-2.14l-3.18-4.44-.8-1.11-.71-1.17L110.8,305a108.2,108.2,0,0,1-5.17-9.61,78.9,78.9,0,0,1-6.31-20.8,72.22,72.22,0,0,1,.11-21.72A81.08,81.08,0,0,1,105.7,232a101.27,101.27,0,0,1,11.19-18.74,132.14,132.14,0,0,1,31.81-29.83.49.49,0,0,0,.15-.67.5.5,0,0,0-.68-.17h0A143.65,143.65,0,0,0,130,195.38a122.92,122.92,0,0,0-15.81,15.88,99.61,99.61,0,0,0-12.45,19,85.7,85.7,0,0,0-7.51,21.83,77.14,77.14,0,0,0-.84,23.41,85.43,85.43,0,0,0,6.14,22.72,109.63,109.63,0,0,0,11.55,20.29c.53.82,1.17,1.55,1.76,2.32l1.82,2.29,1.81,2.28c.62.75,1.3,1.45,1.94,2.17l3.94,4.3,4.19,4c.71.66,1.38,1.37,2.12,2l2.22,1.88c1.49,1.23,2.92,2.55,4.47,3.71L140,347l1.17.87,1.2.8,2.43,1.6c3.18,2.23,6.62,4,10,6,1.7.92,3.46,1.73,5.19,2.61l2.61,1.28c.88.41,1.78.77,2.67,1.15l5.36,2.26,5.49,2c1.82.7,3.69,1.22,5.56,1.77l2.8.82c.93.28,1.87.55,2.83.75l5.7,1.31c1.91.44,3.86.69,5.79,1l2.9.48c1,.14,1.91.23,2.86.35,1.91.2,3.82.49,5.74.61a157.43,157.43,0,0,0,23.09.42,170.44,170.44,0,0,0,23-2.75,143,143,0,0,0,43.93-15.83c13.65-7.89,26.12-18.62,35.12-32.3a82.28,82.28,0,0,0,10.19-22.35l.43-1.48.35-1.51.67-3c.39-2,.67-4.08,1-6.11A86,86,0,0,0,348.56,275.5Z" style="fill:#263238"></path><path d="M210.91,209.76a3.49,3.49,0,0,0,3.14,2,3.38,3.38,0,0,0,1.54-.36l14-6.87,9.17,7.8a3.5,3.5,0,1,0,4.53-5.33l-6.86-5.84,7.73-3.81A3.5,3.5,0,1,0,241,191l-10.45,5.15-7.34-6.25a3.5,3.5,0,0,0-4.54,5.33l5,4.29-11.24,5.53A3.5,3.5,0,0,0,210.91,209.76Z" style="fill:#263238"></path></g><g id="freepik--Character--inject-134"><path d="M387.4,203.55s2.17-4.62.81-8.16-26.38-9.25-26.38-9.25-5.72,0-5.45,3.26,20.95,15.78,22.58,16.87S386.85,209.81,387.4,203.55Z" style="fill:#fff;stroke:#263238;stroke-linecap:round;stroke-linejoin:round"></path><path d="M368.9,200.83a11.23,11.23,0,0,1,7.34-5.44c5.17-1.09,12,2.45,12.79,8.16s-3.54,8.43-6.26,8.43-5.17-3.81-5.17-3.81S368.9,204.91,368.9,200.83Z" style="fill:#fff;stroke:#263238;stroke-linecap:round;stroke-linejoin:round"></path><path d="M362.2,227.68a18.16,18.16,0,0,0,11.68,10.43c9.18,2.92,26.28-1.25,36.29,0l7.5,7.93L406,253.54a244.31,244.31,0,0,0-26.28-7.09c-13.86-2.85-22.52-15.85-22.52-15.85Z" style="fill:#263238"></path><polygon points="232.07 265.55 226.53 269.41 229.18 271.33 233.52 269.89 232.07 265.55" style="fill:#263238;stroke:#263238;stroke-linecap:round;stroke-linejoin:round"></polygon><path d="M357.93,172.73s-2.38-.87-4.54-1.95.21,3.89,1.08,4.11,3,.65,3,.65Z" style="fill:#fff;stroke:#263238;stroke-linecap:round;stroke-linejoin:round"></path><path d="M241.86,250.56l-10.74,14.27a3.3,3.3,0,0,0-.32,3.47h0a3.31,3.31,0,0,0,3.53,1.78l15.58-2.71,168.53-96.89a16.67,16.67,0,0,0,5.76-23.22h0A16.66,16.66,0,0,0,401,142.11Z" style="fill:#FF725E;stroke:#263238;stroke-linecap:round;stroke-linejoin:round"></path><path d="M401,142.11l-44.92,31c.42,7.78,3.76,18.08,17.37,22.63l45-25.29A16.66,16.66,0,1,0,401,142.11Z" style="fill:#263238;stroke:#263238;stroke-linecap:round;stroke-linejoin:round"></path><path d="M230.8,268.3h0a3.31,3.31,0,0,0,3.53,1.78l15.58-2.71c-12.6-4.9-8-16.81-8-16.81l-10.74,14.27A3.3,3.3,0,0,0,230.8,268.3Z" style="fill:#FF725E;stroke:#263238;stroke-linecap:round;stroke-linejoin:round"></path><path d="M344.11,177.7s-2.42,0-2.42,1.1-.63,5,.77,4.89,1.27-2.57,1.39-3.43S344.11,177.7,344.11,177.7Z" style="fill:#fff;stroke:#263238;stroke-linecap:round;stroke-linejoin:round"></path><path d="M346.76,173.71s-2.17-.66-2.66.67-1,7.64.49,7.48S346.42,176,346.76,173.71Z" style="fill:#fff;stroke:#263238;stroke-linecap:round;stroke-linejoin:round"></path><path d="M350.08,174.05s-2.49-2.16-3.32-.34-1,7,0,7,2.49-2.16,2.82-3.32A22.75,22.75,0,0,0,350.08,174.05Z" style="fill:#fff;stroke:#263238;stroke-linecap:round;stroke-linejoin:round"></path><path d="M353.57,175s-3.16-2.66-3.66-2.16-2.49,5.62-1,6.65,3.39-3.56,3.39-3.56Z" style="fill:#fff;stroke:#263238;stroke-linecap:round;stroke-linejoin:round"></path><path d="M313.91,199.66s.35,5.34,1.77,6.58a16.49,16.49,0,0,1,2.32,2.49,37.71,37.71,0,0,1,.35,4.09c0,1.6,1.07,1.43,2,1.43s2.49,3,3.38,4.44a9.26,9.26,0,0,0,3.77,3c1.6.88,4.26-2.49,4.26-2.49l3.52,5.85,12.63-8.18-6.22-12.09a29,29,0,0,0-3.74-11.91c-3.55-6.4-8.36-10-16.36-7.65S313.91,199.66,313.91,199.66Z" style="fill:#fff;stroke:#263238;stroke-linecap:round;stroke-linejoin:round"></path><line x1="334" y1="221.54" x2="328.59" y2="216.1" style="fill:#fff;stroke:#263238;stroke-linecap:round;stroke-linejoin:round"></line><path d="M324.66,205.9a3.21,3.21,0,0,1-3.53,0,7.12,7.12,0,0,1-3.13-6.27c0-2.75-3.53-1.57-3.53-1.57s-3.93,4.31-6.67,2.74-4.32-4.7,3.53-14.51,15.3-9.41,21.57-5.49,8.75,24,8.75,24-.12,3.83-5.22,5S324.66,209.82,324.66,205.9Z" style="fill:#263238;stroke:#263238;stroke-linecap:round;stroke-linejoin:round"></path><path d="M323.69,209.27s-1.78-6.76,1.06-5.87,4.45,6.93,4.27,7.64-1.6,1.07-2.31.89" style="fill:#fff;stroke:#263238;stroke-linecap:round;stroke-linejoin:round"></path><path d="M344.24,211.72a73.84,73.84,0,0,0-9.48,6.32c-3,2.67-5.69,10.67-5.69,10.67s18.32-12.45,21.52-14.23,3.91-2.66,3.91-2.66S347.8,210.83,344.24,211.72Z" style="fill:#fff;stroke:#263238;stroke-linecap:round;stroke-linejoin:round"></path><path d="M299.11,259.52s-5.18-2.4-11.16-5.59-12.36-6.77-12.36-6.77a21.26,21.26,0,0,0-5.18,0,64.08,64.08,0,0,1-9.17,1.59c-2,0-3.19,2-2,2.79s7.58,0,7.58,0l-10,4.79s-1.19,2.39,1.6,2.39,4-.4,7.17,0,9.57-3.59,9.57-3.59,16.88,19.45,20.8,19.69S307.89,265.9,299.11,259.52Z" style="fill:#fff;stroke:#263238;stroke-linecap:round;stroke-linejoin:round"></path><path d="M304.43,255.78s-8.71,2.45-10.34,6.26-1.36,9.52,1.9,12.78,4.63,4.08,8.16,2.72,4.36-3.53,4.63-5.71S311,262.31,304.43,255.78Z" style="fill:#fff;stroke:#263238;stroke-linecap:round;stroke-linejoin:round"></path><path d="M420.91,408.88a35,35,0,0,0-1.9,3.54c-.27.82-6.26,1.63-5.44,4.35s7.07,4.9,10.07,5.17,9-3.81,10.06-4.9c.64-.64,1.6-4.86,1.09-8.16a8.49,8.49,0,0,0-2.18-4.08S427.44,396.91,420.91,408.88Z" style="fill:#fff;stroke:#263238;stroke-linecap:round;stroke-linejoin:round"></path><path d="M434.79,408.88a8,8,0,0,0-1.85-3.71,8.27,8.27,0,0,0-6,2.63c-2.72,3.26-1.36,10.6-4.63,11.69-2.43.81-6.68-2.16-8.68-3.72a1.54,1.54,0,0,0,0,1c.82,2.72,7.07,4.9,10.07,5.17s9-3.81,10.06-4.9C434.34,416.4,435.3,412.18,434.79,408.88Z" style="fill:#fff;stroke:#263238;stroke-linecap:round;stroke-linejoin:round"></path><path d="M427.72,410.79c-1.09,4.89.27,8.16-4.08,11.15,3,.27,9-3.81,10.06-4.9.64-.64,1.6-4.86,1.09-8.16a6.36,6.36,0,0,0-.67-1.94l-.42,0S428.8,405.89,427.72,410.79Z" style="fill:#263238;stroke:#263238;stroke-linecap:round;stroke-linejoin:round"></path><path d="M411.25,372.7c-4.08-8.16-20.59-30.14-20.59-30.14s-7.61-47.59-7.89-50.87c-.52-6.28-4.55-15.76-4.55-15.76s-13.13-2.74-38.16,11.95l.27,8.16,17.45,21.52c.84-.69,1.33-1.11,1.33-1.11s11.15,28,13.6,33.46,14.54,24.79,20.54,28.79c3.34,2.23,27.66,30.18,27.66,30.18s4.63-4.08,7.62-4.08h4.08S415.33,380.86,411.25,372.7Z" style="fill:#263238;stroke:#263238;stroke-linecap:round;stroke-linejoin:round"></path><g style="opacity:0.35000000000000003"><path d="M415.76,397.39c3.32,4.19,5.51,7.32,5.51,7.32" style="fill:none;stroke:#fff;stroke-linecap:round;stroke-linejoin:round"></path><path d="M366.08,319.35s4.31,11.21,9.92,24.14,12.5,28.46,22.85,36.22c4.37,3.27,9,8.24,13,12.88" style="fill:none;stroke:#fff;stroke-linecap:round;stroke-linejoin:round"></path><polyline points="377.88 308.01 359.11 316.44 379.02 315.47" style="fill:none;stroke:#fff;stroke-linecap:round;stroke-linejoin:round"></polyline></g><path d="M374.61,198.93c-4.62.54-16.59,8.7-17.41,9.52s-4.08,2.72-5.44,3.81c0,0-28,17.41-30.47,19s-7.34,4.89-7.07,6-14.42,25-14.42,25-4.35,5.71-.27,10.88,7.89,1.63,9.79.55,16.87-15.24,16.87-15.24L340,291.45s19.12-12.82,39.52-12l-13.6-53.32s18.77-14.15,19.31-19S379.24,198.38,374.61,198.93Z" style="fill:#fff"></path><g style="clip-path:url(#freepik--clip-path--inject-134)"><path d="M374.61,198.93c-1.85.21-4.88,1.65-7.9,3.36a3.57,3.57,0,0,1,3.64,1.52c2.25,2.89-2.57,12.19-2.57,12.19s-2-12.86-1.92-9-1,15.72-1,15.72-6.42-7.7-6.1-5.77,4.49,19.89,7.06,26.63-1.93,25.67-4.49,31.13-1-23.1-3.85-16.05S345,285.32,342.75,287.25s.72-26.17,1.52-29.83c-1,3.06-7.61,22.44-7.61,22.44l-9-23.1s-15.4-12.52-13.8-10.27,5.46,9.31,5.46,9.31-9.31-1.93-7.7-1.29,8.66,4.17,8.66,4.17S305.85,269,301.68,270.24a16.62,16.62,0,0,1-3.44.63,8.18,8.18,0,0,0,1.29,2.32c4.08,5.17,7.89,1.63,9.79.55s16.87-15.24,16.87-15.24L340,291.45s19.12-12.82,39.52-12l-13.6-53.32s18.77-14.15,19.31-19S379.24,198.38,374.61,198.93Z" style="fill:#FF725E"></path><path d="M374.61,198.93c-1.85.21-4.88,1.65-7.9,3.36a3.57,3.57,0,0,1,3.64,1.52c2.25,2.89-2.57,12.19-2.57,12.19s-2-12.86-1.92-9-1,15.72-1,15.72-6.42-7.7-6.1-5.77,4.49,19.89,7.06,26.63-1.93,25.67-4.49,31.13-1-23.1-3.85-16.05S345,285.32,342.75,287.25s.72-26.17,1.52-29.83c-1,3.06-7.61,22.44-7.61,22.44l-9-23.1s-15.4-12.52-13.8-10.27,5.46,9.31,5.46,9.31-9.31-1.93-7.7-1.29,8.66,4.17,8.66,4.17S305.85,269,301.68,270.24a16.62,16.62,0,0,1-3.44.63,8.18,8.18,0,0,0,1.29,2.32c4.08,5.17,7.89,1.63,9.79.55s16.87-15.24,16.87-15.24L340,291.45s19.12-12.82,39.52-12l-13.6-53.32s18.77-14.15,19.31-19S379.24,198.38,374.61,198.93Z" style="fill:#fff;opacity:0.5"></path></g><path d="M374.61,198.93c-4.62.54-16.59,8.7-17.41,9.52s-4.08,2.72-5.44,3.81c0,0-28,17.41-30.47,19s-7.34,4.89-7.07,6-14.42,25-14.42,25-4.35,5.71-.27,10.88,7.89,1.63,9.79.55,16.87-15.24,16.87-15.24L340,291.45s19.12-12.82,39.52-12l-13.6-53.32s18.77-14.15,19.31-19S379.24,198.38,374.61,198.93Z" style="fill:none;stroke:#263238;stroke-linecap:round;stroke-linejoin:round"></path><path d="M340,291.45A71.62,71.62,0,0,1,341.14,269" style="fill:#fff;stroke:#263238;stroke-linecap:round;stroke-linejoin:round"></path><path d="M337.41,274.78s0-4.6,5.17-19" style="fill:#fff;stroke:#263238;stroke-linecap:round;stroke-linejoin:round"></path><polyline points="315.58 246.53 326.19 258.5 315.31 250.61" style="fill:#fff;stroke:#263238;stroke-linecap:round;stroke-linejoin:round"></polyline><polyline points="365.91 210.9 365.91 226.13 369.44 206.54" style="fill:#fff;stroke:#263238;stroke-linecap:round;stroke-linejoin:round"></polyline><path d="M344.36,257.08a1.73,1.73,0,0,0-.09.34C344.39,257.05,344.43,256.91,344.36,257.08Z" style="fill:#263238"></path><path d="M350.58,191.87a3.5,3.5,0,0,1-2-6.39l40.33-27.66a3.5,3.5,0,1,1,4,5.77l-40.33,27.67A3.5,3.5,0,0,1,350.58,191.87Z" style="fill:#263238"></path><line x1="361.05" y1="186.03" x2="392.41" y2="164.45" style="fill:none;stroke:#fff;stroke-linecap:round;stroke-linejoin:round"></line><line x1="357.51" y1="179.45" x2="388.87" y2="157.88" style="fill:none;stroke:#fff;stroke-linecap:round;stroke-linejoin:round"></line><path d="M340.33,296s-30.21,35.13-30.87,43.13,5.33,16,12.66,18,78.79,3.59,78.79,3.59l-.67-13.33-63.45-9.59,21-20.28" style="fill:#263238;stroke:#263238;stroke-linecap:round;stroke-linejoin:round"></path><g style="opacity:0.35000000000000003"><line x1="387.55" y1="353.29" x2="392.38" y2="353.84" style="fill:none;stroke:#fff;stroke-linecap:round;stroke-linejoin:round"></line><path d="M319.61,336.57l-1.38,1.75s8.62-.43,6.9,1.29a9.61,9.61,0,0,0-2.16,4.74l5.17-1.29s-3,6-.86,5.61a23.29,23.29,0,0,0,4.74-1.73l50,5.71" style="fill:none;stroke:#fff;stroke-linecap:round;stroke-linejoin:round"></path><path d="M348.41,290s-8.2,5.61-4.31,6.47,8.62-.43,7.32,1.29a75.79,75.79,0,0,1-6,6l-19.25,24.44" style="fill:none;stroke:#fff;stroke-linecap:round;stroke-linejoin:round"></path><path d="M344.1,296.5s4.74-6.9,15.52-7.33" style="fill:none;stroke:#fff;stroke-linecap:round;stroke-linejoin:round"></path></g><path d="M398.86,347.27s7.51-1.71,8.88.68,2.05,8.19,2.05,10.92,2,7.17,1.7,11.27-6.48,8.53-8.53,8.53-2-12.29-4.1-17.07S396.48,350,398.86,347.27Z" style="fill:#fff;stroke:#263238;stroke-linecap:round;stroke-linejoin:round"></path><path d="M403.6,378.56c2.46-.68,7.58-4.69,7.89-8.42.35-4.1-1.7-8.54-1.7-11.27s-.69-8.53-2.05-10.92c-.61-1.07-2.45-1.32-4.3-1.27a4.6,4.6,0,0,0-1.26,3.89c.48,3.91,4.39,19.79,2.93,24.19A35.23,35.23,0,0,1,403.6,378.56Z" style="fill:#fff;stroke:#263238;stroke-linecap:round;stroke-linejoin:round"></path><path d="M407.74,348a2.46,2.46,0,0,0-1.56-1,9.24,9.24,0,0,0-1.76,6.11c.43,6.51,1.74,11.73,2.17,17.37a13.45,13.45,0,0,1-1.11,7.27c2.56-1.53,5.77-4.62,6-7.55.35-4.1-1.7-8.54-1.7-11.27S409.1,350.34,407.74,348Z" style="fill:#263238;stroke:#263238;stroke-linecap:round;stroke-linejoin:round"></path></g></svg>