<svg xmlns="http://www.w3.org/2000/svg" viewBox="0 0 500 500"><g id="freepik--graduation-hat-3--inject-192"><path d="M425.33,296.22a16.56,16.56,0,0,0-9.06-6.89,14.64,14.64,0,0,1-5.07,12.39,31.33,31.33,0,0,0-.06-10.18,3.77,3.77,0,0,0-1-2.35,3.85,3.85,0,0,0-2.68-.6,54.85,54.85,0,0,0-11.41,1.6,17.92,17.92,0,0,1-2.27,16.51c-2.44,3.35-6,5.72-8.95,8.59s-5.59,6.69-5.25,10.82l1.36,4.18c9.3.57,18.51-3.08,26-8.7s13.27-13.08,18.4-20.86a4.6,4.6,0,0,0,.9-2A4,4,0,0,0,425.33,296.22Z" style="fill:#EC705E"></path><path d="M377.75,327.56c.21.28-.54,1.29-2.11,2.53a24.56,24.56,0,0,1-14.53,5c-2,0-3.22-.37-3.22-.71,0-.76,4.69-1.21,10-3.07S377.28,327,377.75,327.56Z" style="fill:#EC705E"></path><path d="M381,329.64a5.34,5.34,0,1,1-4.5-6.06A5.34,5.34,0,0,1,381,329.64Z" style="fill:#EC705E"></path><path d="M381,329.64c-.06,0,0-.47-.08-1.3a5.27,5.27,0,0,0-1.52-3.07,5.11,5.11,0,1,0-6.11,8.06,5.17,5.17,0,0,0,4.91,0,5.35,5.35,0,0,0,2.34-2.5c.34-.76.4-1.24.46-1.23a1.17,1.17,0,0,1,0,.35,4.11,4.11,0,0,1-.25,1,5.32,5.32,0,0,1-2.36,2.74,5.51,5.51,0,0,1-7.59-2.23,5.53,5.53,0,0,1,1-6.54,5.54,5.54,0,0,1,7.92.09,5.28,5.28,0,0,1,1.45,3.31,4.09,4.09,0,0,1,0,1A1.15,1.15,0,0,1,381,329.64Z" style="fill:#263238"></path><path d="M391.73,321a29.83,29.83,0,0,1-5.35,3.31,29.29,29.29,0,0,1-5.74,2.59,52.62,52.62,0,0,1,5.49-3.05A55,55,0,0,1,391.73,321Z" style="fill:#263238"></path><path d="M404.87,314.29a4.35,4.35,0,0,1-.63.95,25.37,25.37,0,0,1-2,2.36,35.76,35.76,0,0,1-17.35,10.21,25.82,25.82,0,0,1-3,.59,4.55,4.55,0,0,1-1.13.09c0-.09,1.58-.33,4.06-1A39.49,39.49,0,0,0,402,317.34C403.82,315.51,404.8,314.23,404.87,314.29Z" style="fill:#263238"></path><path d="M386.6,318a43.81,43.81,0,0,1-3.27,4.12,46.43,46.43,0,0,1-3.37,4,19.36,19.36,0,0,1,3-4.37A19.59,19.59,0,0,1,386.6,318Z" style="fill:#263238"></path><path d="M399.08,300.2a14.39,14.39,0,0,0-4.49-6.27,7.3,7.3,0,0,0-3.07-1.73c-2-.44-4,.52-5.83,1.47a9.82,9.82,0,0,1,3.65,16.16c-1.87,1.88-4.43,2.94-6.37,4.74a11.18,11.18,0,0,0-3.24,10.53l18.62-17.39A8.87,8.87,0,0,0,399.08,300.2Z" style="fill:#EC705E"></path><polygon points="97.21 326.6 219.52 274.7 385.8 354.04 304.89 378.74 175.33 359.98 97.21 326.6" style="fill:#263238"></polygon><polygon points="97.55 319.89 97.21 326.6 219.52 274.7 221.24 266.22 97.55 319.89" style="fill:#263238"></polygon><polygon points="385.8 354.04 387.29 346.7 221.24 266.22 219.52 274.7 385.8 354.04" style="fill:#263238"></polygon><polygon points="385.8 354.04 387.29 346.7 221.24 266.22 219.52 274.7 385.8 354.04" style="fill:#fff;opacity:0.30000000000000004"></polygon><polygon points="97.21 326.6 219.52 274.7 385.8 354.04 304.89 378.74 175.33 359.98 97.21 326.6" style="opacity:0.4"></polygon><polygon points="150.5 390.32 163.02 328.74 316.77 360 305.88 421.25 150.5 390.32" style="fill:#263238"></polygon><ellipse cx="240.04" cy="343.31" rx="26.48" ry="78.45" transform="translate(-141.76 515.67) rotate(-79.33)" style="fill:#263238"></ellipse><path d="M299.71,336.15l-14.79,65.44,20.8,20.29,11-59.5a18.12,18.12,0,0,0-4.32-15.83A51.89,51.89,0,0,0,299.71,336.15Z" style="fill:#fff;opacity:0.30000000000000004"></path><path d="M150.53,390.33l12.33-60.63c0-.3.06-.6.12-.9,2.7-14.37,39.42-19.52,82-11.5l-8.6,42.26a22.62,22.62,0,0,1-24.73,18c-10.48-1.19-23-2.1-32.2-1.22-26.58,2.53-28.92,14-28.92,14" style="opacity:0.2"></path><path d="M308.4,407.29c-.39,2.09-2.26,12.49-2.42,12.95-4.51,13.08-43.12,4.37-79.34-2.45-36.43-6.86-69.93-14.45-76.35-26.6,0,0,2.56-10.79,2.94-12.81,2.53-13.4,39.63-17.19,82.55-9.11S310.92,393.89,308.4,407.29Z" style="fill:#EC705E"></path><path d="M305.92,421.05c-2.52,13.4-39.62,17.4-82.54,9.31s-75.67-25.49-73.15-38.89,39.36-17.71,82.28-9.63S308.44,407.66,305.92,421.05Z" style="fill:#263238"></path><path d="M306.61,421.19a10.3,10.3,0,0,0-.19-3.51c-.5-2.27-2.33-5.3-5.52-8.34-6.42-6.09-17.81-12.38-32.65-17.72a215.23,215.23,0,0,0-24.77-7.25,250.29,250.29,0,0,0-29.21-5,181.76,181.76,0,0,0-32.69-.85,83.53,83.53,0,0,0-17,2.85,32.48,32.48,0,0,0-8,3.48,17.73,17.73,0,0,0-1.8,1.28,14.18,14.18,0,0,0-1.56,1.54,8.59,8.59,0,0,0-2,3.85c-.55,2.91.65,5.86,2.38,8.19a32.22,32.22,0,0,0,6.2,6.2,82.52,82.52,0,0,0,14.8,8.89A181,181,0,0,0,205.32,426a249.7,249.7,0,0,0,29,6,225.09,225.09,0,0,0,25.7,2.39c15.77.52,28.68-1.05,36.9-4.31,4.1-1.63,6.93-3.76,8.22-5.69a10,10,0,0,0,1.46-3.2s-.07.3-.22.88a4.91,4.91,0,0,1-.39,1,7.54,7.54,0,0,1-.76,1.34c-1.28,2-4.13,4.15-8.23,5.82-8.25,3.33-21.19,5-37,4.48a222.9,222.9,0,0,1-25.75-2.32,252.82,252.82,0,0,1-29.08-6,181.94,181.94,0,0,1-30.84-11.14,82.53,82.53,0,0,1-14.9-8.94,32.74,32.74,0,0,1-6.3-6.31,14.4,14.4,0,0,1-2.12-4,9.23,9.23,0,0,1-.35-4.58,9,9,0,0,1,2.09-4.09,12.88,12.88,0,0,1,1.62-1.6,20,20,0,0,1,1.85-1.32,32.9,32.9,0,0,1,8.18-3.54,83.66,83.66,0,0,1,17.13-2.86,181.61,181.61,0,0,1,32.77.88,248.43,248.43,0,0,1,29.26,5,215.38,215.38,0,0,1,24.8,7.32c14.85,5.4,26.25,11.75,32.66,17.93,3.19,3.07,5,6.16,5.48,8.46a7.13,7.13,0,0,1,.22,1.52,5.11,5.11,0,0,1,0,1.12C306.66,420.89,306.61,421.19,306.61,421.19Z" style="fill:#455a64"></path><ellipse cx="228.79" cy="406.26" rx="20.97" ry="74.64" transform="translate(-212.8 555.91) rotate(-79.33)" style="opacity:0.4"></ellipse><path d="M155.44,392.45s12.21,6.3,32.53,9.34,65.75-11.26,65.75-11.26S167.73,368.62,155.44,392.45Z" style="opacity:0.2"></path></g><g id="freepik--graduation-hat-2--inject-192"><path d="M243.5,170.55a14,14,0,0,1,7.59-6A12.45,12.45,0,0,0,255.62,175a26.84,26.84,0,0,1-.12-8.67,3.21,3.21,0,0,1,.84-2,3.29,3.29,0,0,1,2.27-.56,46.39,46.39,0,0,1,9.75,1.16,15.26,15.26,0,0,0,2.22,14c2.14,2.81,5.18,4.77,7.78,7.16s4.87,5.59,4.66,9.12l-1.09,3.58c-7.91.65-15.82-2.3-22.25-6.95s-11.53-10.9-16-17.43a4,4,0,0,1-.8-1.71A3.43,3.43,0,0,1,243.5,170.55Z" style="fill:#EC705E"></path><path d="M284.56,196.4c.45-.59,3.92,1.38,8.49,2.8s8.52,1.86,8.54,2.61c0,.35-1,.71-2.74.8a19.13,19.13,0,0,1-6.59-.93,19.33,19.33,0,0,1-5.92-3C285,197.57,284.36,196.68,284.56,196.4Z" style="fill:#EC705E"></path><path d="M281.81,198.23a4.54,4.54,0,1,0,3.72-5.24A4.54,4.54,0,0,0,281.81,198.23Z" style="fill:#EC705E"></path><path d="M281.81,198.23s-.05-.09-.09-.28a3.69,3.69,0,0,1-.06-.84,4.55,4.55,0,0,1,1.18-2.87,4.71,4.71,0,0,1,4.3-1.47,4.76,4.76,0,0,1,1.51,8.86,4.73,4.73,0,0,1-4.55,0,4.57,4.57,0,0,1-2.06-2.32,3.44,3.44,0,0,1-.22-.81c0-.19,0-.29,0-.3s.11.39.42,1a4.49,4.49,0,0,0,2,2.07,4.32,4.32,0,1,0-1.16-6.83,4.55,4.55,0,0,0-1.25,2.62C281.79,197.83,281.86,198.23,281.81,198.23Z" style="fill:#263238"></path><path d="M272.54,191a35.77,35.77,0,0,1,4.83,2.29,36.56,36.56,0,0,1,4.72,2.54,37.2,37.2,0,0,1-9.55-4.83Z" style="fill:#263238"></path><path d="M261.23,185.58c.08-.05.94,1,2.53,2.53a33.93,33.93,0,0,0,14.79,8.3c2.13.56,3.48.75,3.47.84a3.68,3.68,0,0,1-1,0,23,23,0,0,1-2.6-.44,30.08,30.08,0,0,1-15-8.4,20.4,20.4,0,0,1-1.73-2A3.71,3.71,0,0,1,261.23,185.58Z" style="fill:#263238"></path><path d="M276.86,188.38a14.7,14.7,0,0,1,3.22,3.13,15,15,0,0,1,2.58,3.69,27.88,27.88,0,0,1-3-3.35A27.77,27.77,0,0,1,276.86,188.38Z" style="fill:#263238"></path><path d="M265.92,173.48a12.2,12.2,0,0,1,3.71-5.42,6.31,6.31,0,0,1,2.58-1.53c1.7-.41,3.43.38,5,1.15a8.37,8.37,0,0,0-2.82,13.83c1.63,1.56,3.82,2.42,5.51,3.92a9.52,9.52,0,0,1,2.94,8.91l-16.16-14.47A7.58,7.58,0,0,1,265.92,173.48Z" style="fill:#EC705E"></path><polygon points="366.79 221.01 273.51 223.87 397.11 118.21 482.96 124.37 366.79 221.01 366.79 221.01" style="fill:#263238"></polygon><path d="M394.16,112c-1.11.7-123.62,106.67-123.58,107.22s2.93,4.61,2.93,4.61L483,124.37l-1.41-4.82Z" style="fill:#263238"></path><polygon points="366.79 221.01 273.51 223.87 397.11 118.21 482.96 124.37 366.79 221.01 366.79 221.01" style="opacity:0.4"></polygon><polygon points="397.11 118.21 394.16 112.04 481.55 119.55 482.96 124.37 397.11 118.21" style="fill:#263238"></polygon><polygon points="397.11 118.21 394.16 112.04 481.55 119.55 482.96 124.37 397.11 118.21" style="fill:#fff;opacity:0.30000000000000004"></polygon><polygon points="355.01 253.62 328.66 209.85 437.93 144.04 465.08 186.72 355.01 253.62" style="fill:#263238"></polygon><ellipse cx="382.8" cy="176.23" rx="63.78" ry="21.52" transform="translate(-35.33 228.79) rotate(-31.88)" style="fill:#263238"></ellipse><path d="M414.6,139.14l27.12,47.32,23.61.73-26.14-41.67a14.7,14.7,0,0,0-11.29-7.11A42.34,42.34,0,0,0,414.6,139.14Z" style="fill:#fff;opacity:0.30000000000000004"></path><path d="M355,253.6l-26-43.08c-.15-.2-.3-.4-.43-.61-6.28-10.09,12.88-33.36,42.79-52l18.09,30a18.4,18.4,0,0,1-4.93,24.36c-6.94,5-14.9,11.36-20,17C350.12,245.44,355,253.6,355,253.6" style="opacity:0.2"></path><path d="M460.46,179.43c.83,1.34,5,7.91,5.14,8.24,3.93,9.43-23.91,25.54-49.35,41.38S366.48,259,356.4,255.9c0,0-4.32-7.18-5.12-8.47-5.3-8.53,15.64-30.5,45.78-49.27S455.16,170.91,460.46,179.43Z" style="fill:#EC705E"></path><path d="M466,188.14c5.3,8.52-15.16,30.63-45.3,49.4s-58.87,27.07-64.17,18.54,14.84-30.66,45-49.43S460.68,179.61,466,188.14Z" style="fill:#263238"></path><path d="M466,188.16a6.9,6.9,0,0,0-2.08-1.89,10.84,10.84,0,0,0-3.23-1.1,23.32,23.32,0,0,0-4.68-.26c-7.08.3-17.08,3.13-28.66,8.22a212.71,212.71,0,0,0-38.4,22.29,165.16,165.16,0,0,0-20,16.91A75.49,75.49,0,0,0,360,242.92a28.88,28.88,0,0,0-3.28,6.22,12.22,12.22,0,0,0-.73,3.42,5.34,5.34,0,0,0,3.35,5.52,11.64,11.64,0,0,0,3.39.9,28,28,0,0,0,7-.16,74.58,74.58,0,0,0,13.44-3.31,164.54,164.54,0,0,0,24-10.49,226.07,226.07,0,0,0,20.39-12.2,199.43,199.43,0,0,0,16.61-12.36c9.72-8.08,16.75-15.74,20.2-21.93a23.41,23.41,0,0,0,1.88-4.29,11.57,11.57,0,0,0,.46-3.38,6.83,6.83,0,0,0-.77-2.7l.35.63a6.12,6.12,0,0,1,.52,2.06,11,11,0,0,1-.41,3.43,23.16,23.16,0,0,1-1.85,4.34c-3.42,6.27-10.43,14-20.14,22.13a201.64,201.64,0,0,1-16.61,12.43,221.54,221.54,0,0,1-20.41,12.26A164.64,164.64,0,0,1,383.31,256a75,75,0,0,1-13.53,3.33,28.09,28.09,0,0,1-7.16.16,11.62,11.62,0,0,1-3.53-.94,5.83,5.83,0,0,1-3.66-6,12.78,12.78,0,0,1,.76-3.58,29.41,29.41,0,0,1,3.34-6.33,76.14,76.14,0,0,1,9-10.66A165.1,165.1,0,0,1,388.63,215a211.1,211.1,0,0,1,38.53-22.24c11.62-5.06,21.67-7.84,28.81-8.08a23.45,23.45,0,0,1,4.71.3,11.07,11.07,0,0,1,3.25,1.17,6.1,6.1,0,0,1,1.61,1.38C465.83,188,466,188.16,466,188.16Z" style="fill:#455a64"></path><ellipse cx="411.67" cy="221.73" rx="60.68" ry="15.44" transform="translate(-54.99 251.16) rotate(-31.92)" style="opacity:0.4"></ellipse><path d="M360.16,253.8s10.62-3.2,24.49-12.5,34.12-41.41,34.12-41.41S355.47,234.44,360.16,253.8Z" style="opacity:0.2"></path></g><g id="freepik--graduation-hat-1--inject-192"><path d="M60.54,189.06c.05.33-2,1-5.47,1.43a46.1,46.1,0,0,1-6.11.31,55.2,55.2,0,0,1-7.47-.66,56.47,56.47,0,0,1-7.3-1.71,45.43,45.43,0,0,1-5.71-2.21c-3.15-1.48-4.89-2.77-4.74-3.07.34-.7,8,2.85,18.16,4.42S60.43,188.29,60.54,189.06Z" style="fill:#EC705E"></path><path d="M24,176.55a11.83,11.83,0,0,1,4.43-6.82,10.48,10.48,0,0,0,6.39,7.12,22.65,22.65,0,0,1-2.4-6.87,2.67,2.67,0,0,1,.13-1.83,2.75,2.75,0,0,1,1.66-1,39,39,0,0,1,8.06-1.68A12.83,12.83,0,0,0,47.8,176c2.45,1.66,5.39,2.41,8.09,3.62s5.37,3.16,6.14,6l.09,3.14c-6.12,2.62-13.2,2.38-19.56.39s-12.07-5.61-17.4-9.6a3.42,3.42,0,0,1-1.09-1.15A2.92,2.92,0,0,1,24,176.55Z" style="fill:#EC705E"></path><path d="M52.59,185.11a23.58,23.58,0,0,1,4.46.5,24,24,0,0,1,4.41.8,16.5,16.5,0,0,1-4.49-.29A16.28,16.28,0,0,1,52.59,185.11Z" style="fill:#263238"></path><path d="M42.14,183.78c0-.07,1,.54,2.69,1.32a30.16,30.16,0,0,0,6.82,2.21,29.26,29.26,0,0,0,7.15.45c1.84-.11,3-.31,3-.23s-.27.12-.77.24a16.3,16.3,0,0,1-2.18.36,25.06,25.06,0,0,1-14.16-2.7,17,17,0,0,1-1.9-1.14C42.35,184,42.12,183.81,42.14,183.78Z" style="fill:#263238"></path><path d="M55.31,181.85a11,11,0,0,1,3.43,1.6,10.86,10.86,0,0,1,3,2.29,19,19,0,0,1-3.28-1.84A19.85,19.85,0,0,1,55.31,181.85Z" style="fill:#263238"></path><path d="M221.21,175.74a5.52,5.52,0,0,0-.54-.85c-.27-3.27-18.11-30.79-18.11-30.79L96.47,204l17.44,29.46.07,0c6.22,8.23,33.53,3,62.35-12.2C206.09,205.54,226.18,185.17,221.21,175.74Z" style="fill:#263238"></path><path d="M221.22,175.78c-.16-.3-1-2.45-1.3-3.21a75.94,75.94,0,0,0-5-8.77c5,9.43-15.67,30.31-45.43,46-28.77,15.17-56,20.42-62.31,12.24l6.79,11.46.07,0c6.22,8.24,33.53,3,62.35-12.19C206.1,205.57,226.19,185.21,221.22,175.78Z" style="fill:#EC705E"></path><g style="opacity:0.4"><path d="M113.48,232.77,97.82,206.28l45.36-21.55a64.71,64.71,0,0,1-22.77,45.37c-1.85,1.54-4,3.05-6.39,3"></path></g><g style="opacity:0.1"><path d="M205.3,202.1c-7-14.75-15.75-28.57-24.52-42.34l-15.44,5.36L155,171l25.48,43.27a38.66,38.66,0,0,0,2.24,3.47A157.25,157.25,0,0,0,205.3,202.1Z" style="fill:#fff"></path></g><path d="M66.11,154.14,57,219.93l2.25,4.37L219,149.72l-4.41-61.41-3.81-5.57L69.24,149.87A5.56,5.56,0,0,0,66.11,154.14Z" style="fill:#263238"></path><path d="M57,219.93l9.13-65.79a5.56,5.56,0,0,1,3.13-4.27L210.78,82.74l5.38,61.78Z" style="fill:#fff;opacity:0.1"></path><path d="M64.06,188.23c10.14,2.62,20.42.17,29.6-4.44s17.83-11.25,25.5-18.28a148.17,148.17,0,0,0,12.3-12.76c1-1.21-.72-3-1.77-1.77a141.22,141.22,0,0,1-21.93,20.82c-7.89,6-16.61,11.58-26.33,14a34.12,34.12,0,0,1-16.71,0,1.25,1.25,0,0,0-.66,2.41Z" style="fill:#EC705E"></path><polygon points="210.78 82.74 214.59 88.31 219 149.72 216.16 144.52 210.78 82.74" style="fill:#fff;opacity:0.30000000000000004"></polygon><g style="opacity:0.30000000000000004"><path d="M219,149.72c.06.13-35.43,16.82-79.27,37.29s-79.45,37-79.51,36.83,35.43-16.83,79.29-37.3S218.94,149.58,219,149.72Z" style="fill:#fff"></path></g><g style="opacity:0.30000000000000004"><path d="M136.73,150.57c-2.75,2-4.38,5.16-6,8.15-9.59,17.46-19.9,31-35.66,43.18l19.58-9.23C120.59,184.48,133.67,164.13,136.73,150.57Z"></path></g><path d="M146.71,143.41c.31.1.29,1.52-.68,3.56a14.15,14.15,0,0,1-14.75,7.67c-2.23-.38-3.41-1.18-3.31-1.49s1.42-.23,3.41-.35a18.21,18.21,0,0,0,7.32-1.91,18,18,0,0,0,5.76-4.89C145.7,144.44,146.34,143.29,146.71,143.41Z" style="fill:#EC705E"></path><path d="M146,143.66c1.05,2.23-2.1,5.93-7.05,8.27s-9.8,2.43-10.86.2,2.1-5.94,7.05-8.27S144.92,141.43,146,143.66Z" style="fill:#263238"></path><path d="M140.14,139.18a12,12,0,0,0-6.69.89A9.06,9.06,0,0,0,128,151.52L146,143.66A9.77,9.77,0,0,0,140.14,139.18Z" style="fill:#263238"></path><path d="M69,188a4.83,4.83,0,1,1-4-5.56A4.83,4.83,0,0,1,69,188Z" style="fill:#EC705E"></path><path d="M69,188s0-.43,0-1.18a4.84,4.84,0,0,0-1.33-2.79,4.6,4.6,0,1,0-1.22,7.28,4.91,4.91,0,0,0,2.17-2.21c.32-.68.38-1.11.43-1.1s0,.11,0,.31a4.19,4.19,0,0,1-.24.87,4.77,4.77,0,0,1-2.18,2.45,5,5,0,0,1-4.82,0,5.05,5.05,0,0,1,1.58-9.39,5,5,0,0,1,4.56,1.55,4.81,4.81,0,0,1,1.26,3,4.25,4.25,0,0,1-.06.9Q69,188,69,188Z" style="fill:#263238"></path></g></svg>
